<?xml version="1.0" encoding="UTF-8" standalone="no"?>
<!DOCTYPE svg PUBLIC "-//W3C//DTD SVG 1.1//EN"
 "http://www.w3.org/Graphics/SVG/1.1/DTD/svg11.dtd">
<!-- Generated by graphviz version 2.43.0 (0)
 -->
<!-- Title: model Pages: 1 -->
<svg width="202pt" height="950pt"
 viewBox="0.00 0.00 201.98 950.00" xmlns="http://www.w3.org/2000/svg" xmlns:xlink="http://www.w3.org/1999/xlink">
<g id="graph0" class="graph" transform="scale(0.67 0.67) rotate(0) translate(4 1407)">
<title>model</title>
<polygon fill="white" stroke="transparent" points="-4,4 -4,-1407 296,-1407 296,4 -4,4"/>
<g id="clust1" class="cluster">
<title>cluster_2</title>
<polygon fill="none" stroke="black" stroke-dasharray="5,2" points="8,-8 8,-1363 284,-1363 284,-8 8,-8"/>
<text text-anchor="middle" x="52.5" y="-1349.4" font-family="Times,serif" font-size="12.00">EfficientNet</text>
</g>
<g id="clust2" class="cluster">
<title>cluster_3</title>
<polygon fill="none" stroke="black" stroke-dasharray="5,2" points="16,-631 16,-1334 276,-1334 276,-631 16,-631"/>
<text text-anchor="middle" x="56" y="-1320.4" font-family="Times,serif" font-size="12.00">Sequential</text>
</g>
<g id="clust3" class="cluster">
<title>cluster_4</title>
<polygon fill="none" stroke="black" stroke-dasharray="5,2" points="52,-16 52,-475 240,-475 240,-16 52,-16"/>
<text text-anchor="middle" x="92" y="-461.4" font-family="Times,serif" font-size="12.00">Sequential</text>
</g>
<!-- 0 -->
<g id="node1" class="node">
<title>0</title>
<polygon fill="lightyellow" stroke="transparent" points="214,-1403 78,-1403 78,-1371 214,-1371 214,-1403"/>
<polygon fill="none" stroke="black" points="78,-1371 78,-1403 146,-1403 146,-1371 78,-1371"/>
<text text-anchor="start" x="83" y="-1390" font-family="Linux libertine" font-size="10.00">input&#45;tensor</text>
<text text-anchor="start" x="93.5" y="-1379" font-family="Linux libertine" font-size="10.00">depth:0</text>
<polygon fill="none" stroke="black" points="146,-1371 146,-1403 214,-1403 214,-1371 146,-1371"/>
<text text-anchor="start" x="151" y="-1384.5" font-family="Linux libertine" font-size="10.00">(1, 3, 64, 64)</text>
</g>
<!-- 1 -->
<g id="node2" class="node">
<title>1</title>
<polygon fill="#c1ffc1" stroke="transparent" points="267.5,-1305 24.5,-1305 24.5,-1263 267.5,-1263 267.5,-1305"/>
<polygon fill="none" stroke="black" points="25,-1263 25,-1305 144,-1305 144,-1263 25,-1263"/>
<text text-anchor="start" x="30" y="-1287" font-family="Linux libertine" font-size="10.00">Conv2dNormActivation</text>
<text text-anchor="start" x="66" y="-1276" font-family="Linux libertine" font-size="10.00">depth:3</text>
<polygon fill="none" stroke="black" points="144,-1284 144,-1305 191,-1305 191,-1284 144,-1284"/>
<text text-anchor="start" x="153.5" y="-1292" font-family="Linux libertine" font-size="10.00">input:</text>
<polygon fill="none" stroke="black" points="191,-1284 191,-1305 268,-1305 268,-1284 191,-1284"/>
<text text-anchor="start" x="199" y="-1292" font-family="Linux libertine" font-size="10.00">(1, 3, 64, 64) </text>
<polygon fill="none" stroke="black" points="144,-1263 144,-1284 191,-1284 191,-1263 144,-1263"/>
<text text-anchor="start" x="149" y="-1271" font-family="Linux libertine" font-size="10.00">output: </text>
<polygon fill="none" stroke="black" points="191,-1263 191,-1284 268,-1284 268,-1263 191,-1263"/>
<text text-anchor="start" x="196" y="-1271" font-family="Linux libertine" font-size="10.00">(1, 32, 32, 32) </text>
</g>
<!-- 0&#45;&gt;1 -->
<g id="edge1" class="edge">
<title>0&#45;&gt;1</title>
<path fill="none" stroke="black" d="M146,-1370.66C146,-1355.99 146,-1333.46 146,-1315.19"/>
<polygon fill="black" stroke="black" points="149.5,-1315.02 146,-1305.02 142.5,-1315.02 149.5,-1315.02"/>
</g>
<!-- 2 -->
<g id="node3" class="node">
<title>2</title>
<polygon fill="#c1ffc1" stroke="transparent" points="237.5,-1227 54.5,-1227 54.5,-1185 237.5,-1185 237.5,-1227"/>
<polygon fill="none" stroke="black" points="55,-1185 55,-1227 114,-1227 114,-1185 55,-1185"/>
<text text-anchor="start" x="60" y="-1209" font-family="Linux libertine" font-size="10.00">Sequential</text>
<text text-anchor="start" x="66" y="-1198" font-family="Linux libertine" font-size="10.00">depth:3</text>
<polygon fill="none" stroke="black" points="114,-1206 114,-1227 161,-1227 161,-1206 114,-1206"/>
<text text-anchor="start" x="123.5" y="-1214" font-family="Linux libertine" font-size="10.00">input:</text>
<polygon fill="none" stroke="black" points="161,-1206 161,-1227 238,-1227 238,-1206 161,-1206"/>
<text text-anchor="start" x="166" y="-1214" font-family="Linux libertine" font-size="10.00">(1, 32, 32, 32) </text>
<polygon fill="none" stroke="black" points="114,-1185 114,-1206 161,-1206 161,-1185 114,-1185"/>
<text text-anchor="start" x="119" y="-1193" font-family="Linux libertine" font-size="10.00">output: </text>
<polygon fill="none" stroke="black" points="161,-1185 161,-1206 238,-1206 238,-1185 161,-1185"/>
<text text-anchor="start" x="166" y="-1193" font-family="Linux libertine" font-size="10.00">(1, 16, 32, 32) </text>
</g>
<!-- 1&#45;&gt;2 -->
<g id="edge2" class="edge">
<title>1&#45;&gt;2</title>
<path fill="none" stroke="black" d="M146,-1262.63C146,-1254.82 146,-1245.73 146,-1237.18"/>
<polygon fill="black" stroke="black" points="149.5,-1237.16 146,-1227.16 142.5,-1237.16 149.5,-1237.16"/>
</g>
<!-- 3 -->
<g id="node4" class="node">
<title>3</title>
<polygon fill="#c1ffc1" stroke="transparent" points="237.5,-1149 54.5,-1149 54.5,-1107 237.5,-1107 237.5,-1149"/>
<polygon fill="none" stroke="black" points="55,-1107 55,-1149 114,-1149 114,-1107 55,-1107"/>
<text text-anchor="start" x="60" y="-1131" font-family="Linux libertine" font-size="10.00">Sequential</text>
<text text-anchor="start" x="66" y="-1120" font-family="Linux libertine" font-size="10.00">depth:3</text>
<polygon fill="none" stroke="black" points="114,-1128 114,-1149 161,-1149 161,-1128 114,-1128"/>
<text text-anchor="start" x="123.5" y="-1136" font-family="Linux libertine" font-size="10.00">input:</text>
<polygon fill="none" stroke="black" points="161,-1128 161,-1149 238,-1149 238,-1128 161,-1128"/>
<text text-anchor="start" x="166" y="-1136" font-family="Linux libertine" font-size="10.00">(1, 16, 32, 32) </text>
<polygon fill="none" stroke="black" points="114,-1107 114,-1128 161,-1128 161,-1107 114,-1107"/>
<text text-anchor="start" x="119" y="-1115" font-family="Linux libertine" font-size="10.00">output: </text>
<polygon fill="none" stroke="black" points="161,-1107 161,-1128 238,-1128 238,-1107 161,-1107"/>
<text text-anchor="start" x="166" y="-1115" font-family="Linux libertine" font-size="10.00">(1, 24, 16, 16) </text>
</g>
<!-- 2&#45;&gt;3 -->
<g id="edge3" class="edge">
<title>2&#45;&gt;3</title>
<path fill="none" stroke="black" d="M146,-1184.63C146,-1176.82 146,-1167.73 146,-1159.18"/>
<polygon fill="black" stroke="black" points="149.5,-1159.16 146,-1149.16 142.5,-1159.16 149.5,-1159.16"/>
</g>
<!-- 4 -->
<g id="node5" class="node">
<title>4</title>
<polygon fill="#c1ffc1" stroke="transparent" points="237.5,-1071 54.5,-1071 54.5,-1029 237.5,-1029 237.5,-1071"/>
<polygon fill="none" stroke="black" points="55,-1029 55,-1071 114,-1071 114,-1029 55,-1029"/>
<text text-anchor="start" x="60" y="-1053" font-family="Linux libertine" font-size="10.00">Sequential</text>
<text text-anchor="start" x="66" y="-1042" font-family="Linux libertine" font-size="10.00">depth:3</text>
<polygon fill="none" stroke="black" points="114,-1050 114,-1071 161,-1071 161,-1050 114,-1050"/>
<text text-anchor="start" x="123.5" y="-1058" font-family="Linux libertine" font-size="10.00">input:</text>
<polygon fill="none" stroke="black" points="161,-1050 161,-1071 238,-1071 238,-1050 161,-1050"/>
<text text-anchor="start" x="166" y="-1058" font-family="Linux libertine" font-size="10.00">(1, 24, 16, 16) </text>
<polygon fill="none" stroke="black" points="114,-1029 114,-1050 161,-1050 161,-1029 114,-1029"/>
<text text-anchor="start" x="119" y="-1037" font-family="Linux libertine" font-size="10.00">output: </text>
<polygon fill="none" stroke="black" points="161,-1029 161,-1050 238,-1050 238,-1029 161,-1029"/>
<text text-anchor="start" x="172" y="-1037" font-family="Linux libertine" font-size="10.00">(1, 40, 8, 8) </text>
</g>
<!-- 3&#45;&gt;4 -->
<g id="edge4" class="edge">
<title>3&#45;&gt;4</title>
<path fill="none" stroke="black" d="M146,-1106.63C146,-1098.82 146,-1089.73 146,-1081.18"/>
<polygon fill="black" stroke="black" points="149.5,-1081.16 146,-1071.16 142.5,-1081.16 149.5,-1081.16"/>
</g>
<!-- 5 -->
<g id="node6" class="node">
<title>5</title>
<polygon fill="#c1ffc1" stroke="transparent" points="231.5,-993 60.5,-993 60.5,-951 231.5,-951 231.5,-993"/>
<polygon fill="none" stroke="black" points="61,-951 61,-993 120,-993 120,-951 61,-951"/>
<text text-anchor="start" x="66" y="-975" font-family="Linux libertine" font-size="10.00">Sequential</text>
<text text-anchor="start" x="72" y="-964" font-family="Linux libertine" font-size="10.00">depth:3</text>
<polygon fill="none" stroke="black" points="120,-972 120,-993 167,-993 167,-972 120,-972"/>
<text text-anchor="start" x="129.5" y="-980" font-family="Linux libertine" font-size="10.00">input:</text>
<polygon fill="none" stroke="black" points="167,-972 167,-993 232,-993 232,-972 167,-972"/>
<text text-anchor="start" x="172" y="-980" font-family="Linux libertine" font-size="10.00">(1, 40, 8, 8) </text>
<polygon fill="none" stroke="black" points="120,-951 120,-972 167,-972 167,-951 120,-951"/>
<text text-anchor="start" x="125" y="-959" font-family="Linux libertine" font-size="10.00">output: </text>
<polygon fill="none" stroke="black" points="167,-951 167,-972 232,-972 232,-951 167,-951"/>
<text text-anchor="start" x="172" y="-959" font-family="Linux libertine" font-size="10.00">(1, 80, 4, 4) </text>
</g>
<!-- 4&#45;&gt;5 -->
<g id="edge5" class="edge">
<title>4&#45;&gt;5</title>
<path fill="none" stroke="black" d="M146,-1028.63C146,-1020.82 146,-1011.73 146,-1003.18"/>
<polygon fill="black" stroke="black" points="149.5,-1003.16 146,-993.16 142.5,-1003.16 149.5,-1003.16"/>
</g>
<!-- 6 -->
<g id="node7" class="node">
<title>6</title>
<polygon fill="#c1ffc1" stroke="transparent" points="234.5,-915 57.5,-915 57.5,-873 234.5,-873 234.5,-915"/>
<polygon fill="none" stroke="black" points="58,-873 58,-915 117,-915 117,-873 58,-873"/>
<text text-anchor="start" x="63" y="-897" font-family="Linux libertine" font-size="10.00">Sequential</text>
<text text-anchor="start" x="69" y="-886" font-family="Linux libertine" font-size="10.00">depth:3</text>
<polygon fill="none" stroke="black" points="117,-894 117,-915 164,-915 164,-894 117,-894"/>
<text text-anchor="start" x="126.5" y="-902" font-family="Linux libertine" font-size="10.00">input:</text>
<polygon fill="none" stroke="black" points="164,-894 164,-915 235,-915 235,-894 164,-894"/>
<text text-anchor="start" x="172" y="-902" font-family="Linux libertine" font-size="10.00">(1, 80, 4, 4) </text>
<polygon fill="none" stroke="black" points="117,-873 117,-894 164,-894 164,-873 117,-873"/>
<text text-anchor="start" x="122" y="-881" font-family="Linux libertine" font-size="10.00">output: </text>
<polygon fill="none" stroke="black" points="164,-873 164,-894 235,-894 235,-873 164,-873"/>
<text text-anchor="start" x="169" y="-881" font-family="Linux libertine" font-size="10.00">(1, 112, 4, 4) </text>
</g>
<!-- 5&#45;&gt;6 -->
<g id="edge6" class="edge">
<title>5&#45;&gt;6</title>
<path fill="none" stroke="black" d="M146,-950.63C146,-942.82 146,-933.73 146,-925.18"/>
<polygon fill="black" stroke="black" points="149.5,-925.16 146,-915.16 142.5,-925.16 149.5,-925.16"/>
</g>
<!-- 7 -->
<g id="node8" class="node">
<title>7</title>
<polygon fill="#c1ffc1" stroke="transparent" points="234.5,-837 57.5,-837 57.5,-795 234.5,-795 234.5,-837"/>
<polygon fill="none" stroke="black" points="58,-795 58,-837 117,-837 117,-795 58,-795"/>
<text text-anchor="start" x="63" y="-819" font-family="Linux libertine" font-size="10.00">Sequential</text>
<text text-anchor="start" x="69" y="-808" font-family="Linux libertine" font-size="10.00">depth:3</text>
<polygon fill="none" stroke="black" points="117,-816 117,-837 164,-837 164,-816 117,-816"/>
<text text-anchor="start" x="126.5" y="-824" font-family="Linux libertine" font-size="10.00">input:</text>
<polygon fill="none" stroke="black" points="164,-816 164,-837 235,-837 235,-816 164,-816"/>
<text text-anchor="start" x="169" y="-824" font-family="Linux libertine" font-size="10.00">(1, 112, 4, 4) </text>
<polygon fill="none" stroke="black" points="117,-795 117,-816 164,-816 164,-795 117,-795"/>
<text text-anchor="start" x="122" y="-803" font-family="Linux libertine" font-size="10.00">output: </text>
<polygon fill="none" stroke="black" points="164,-795 164,-816 235,-816 235,-795 164,-795"/>
<text text-anchor="start" x="169" y="-803" font-family="Linux libertine" font-size="10.00">(1, 192, 2, 2) </text>
</g>
<!-- 6&#45;&gt;7 -->
<g id="edge7" class="edge">
<title>6&#45;&gt;7</title>
<path fill="none" stroke="black" d="M146,-872.63C146,-864.82 146,-855.73 146,-847.18"/>
<polygon fill="black" stroke="black" points="149.5,-847.16 146,-837.16 142.5,-847.16 149.5,-847.16"/>
</g>
<!-- 8 -->
<g id="node9" class="node">
<title>8</title>
<polygon fill="#c1ffc1" stroke="transparent" points="234.5,-759 57.5,-759 57.5,-717 234.5,-717 234.5,-759"/>
<polygon fill="none" stroke="black" points="58,-717 58,-759 117,-759 117,-717 58,-717"/>
<text text-anchor="start" x="63" y="-741" font-family="Linux libertine" font-size="10.00">Sequential</text>
<text text-anchor="start" x="69" y="-730" font-family="Linux libertine" font-size="10.00">depth:3</text>
<polygon fill="none" stroke="black" points="117,-738 117,-759 164,-759 164,-738 117,-738"/>
<text text-anchor="start" x="126.5" y="-746" font-family="Linux libertine" font-size="10.00">input:</text>
<polygon fill="none" stroke="black" points="164,-738 164,-759 235,-759 235,-738 164,-738"/>
<text text-anchor="start" x="169" y="-746" font-family="Linux libertine" font-size="10.00">(1, 192, 2, 2) </text>
<polygon fill="none" stroke="black" points="117,-717 117,-738 164,-738 164,-717 117,-717"/>
<text text-anchor="start" x="122" y="-725" font-family="Linux libertine" font-size="10.00">output: </text>
<polygon fill="none" stroke="black" points="164,-717 164,-738 235,-738 235,-717 164,-717"/>
<text text-anchor="start" x="169" y="-725" font-family="Linux libertine" font-size="10.00">(1, 320, 2, 2) </text>
</g>
<!-- 7&#45;&gt;8 -->
<g id="edge8" class="edge">
<title>7&#45;&gt;8</title>
<path fill="none" stroke="black" d="M146,-794.63C146,-786.82 146,-777.73 146,-769.18"/>
<polygon fill="black" stroke="black" points="149.5,-769.16 146,-759.16 142.5,-769.16 149.5,-769.16"/>
</g>
<!-- 9 -->
<g id="node10" class="node">
<title>9</title>
<polygon fill="#c1ffc1" stroke="transparent" points="267.5,-681 24.5,-681 24.5,-639 267.5,-639 267.5,-681"/>
<polygon fill="none" stroke="black" points="25,-639 25,-681 144,-681 144,-639 25,-639"/>
<text text-anchor="start" x="30" y="-663" font-family="Linux libertine" font-size="10.00">Conv2dNormActivation</text>
<text text-anchor="start" x="66" y="-652" font-family="Linux libertine" font-size="10.00">depth:3</text>
<polygon fill="none" stroke="black" points="144,-660 144,-681 191,-681 191,-660 144,-660"/>
<text text-anchor="start" x="153.5" y="-668" font-family="Linux libertine" font-size="10.00">input:</text>
<polygon fill="none" stroke="black" points="191,-660 191,-681 268,-681 268,-660 191,-660"/>
<text text-anchor="start" x="199" y="-668" font-family="Linux libertine" font-size="10.00">(1, 320, 2, 2) </text>
<polygon fill="none" stroke="black" points="144,-639 144,-660 191,-660 191,-639 144,-639"/>
<text text-anchor="start" x="149" y="-647" font-family="Linux libertine" font-size="10.00">output: </text>
<polygon fill="none" stroke="black" points="191,-639 191,-660 268,-660 268,-639 191,-639"/>
<text text-anchor="start" x="196" y="-647" font-family="Linux libertine" font-size="10.00">(1, 1280, 2, 2) </text>
</g>
<!-- 8&#45;&gt;9 -->
<g id="edge9" class="edge">
<title>8&#45;&gt;9</title>
<path fill="none" stroke="black" d="M146,-716.63C146,-708.82 146,-699.73 146,-691.18"/>
<polygon fill="black" stroke="black" points="149.5,-691.16 146,-681.16 142.5,-691.16 149.5,-691.16"/>
</g>
<!-- 10 -->
<g id="node11" class="node">
<title>10</title>
<polygon fill="#c1ffc1" stroke="transparent" points="259,-603 33,-603 33,-561 259,-561 259,-603"/>
<polygon fill="none" stroke="black" points="33,-561 33,-603 135,-603 135,-561 33,-561"/>
<text text-anchor="start" x="38" y="-585" font-family="Linux libertine" font-size="10.00">AdaptiveAvgPool2d</text>
<text text-anchor="start" x="65.5" y="-574" font-family="Linux libertine" font-size="10.00">depth:2</text>
<polygon fill="none" stroke="black" points="135,-582 135,-603 182,-603 182,-582 135,-582"/>
<text text-anchor="start" x="144.5" y="-590" font-family="Linux libertine" font-size="10.00">input:</text>
<polygon fill="none" stroke="black" points="182,-582 182,-603 259,-603 259,-582 182,-582"/>
<text text-anchor="start" x="187" y="-590" font-family="Linux libertine" font-size="10.00">(1, 1280, 2, 2) </text>
<polygon fill="none" stroke="black" points="135,-561 135,-582 182,-582 182,-561 135,-561"/>
<text text-anchor="start" x="140" y="-569" font-family="Linux libertine" font-size="10.00">output: </text>
<polygon fill="none" stroke="black" points="182,-561 182,-582 259,-582 259,-561 182,-561"/>
<text text-anchor="start" x="187" y="-569" font-family="Linux libertine" font-size="10.00">(1, 1280, 1, 1) </text>
</g>
<!-- 9&#45;&gt;10 -->
<g id="edge10" class="edge">
<title>9&#45;&gt;10</title>
<path fill="none" stroke="black" d="M146,-638.63C146,-630.82 146,-621.73 146,-613.18"/>
<polygon fill="black" stroke="black" points="149.5,-613.16 146,-603.16 142.5,-613.16 149.5,-613.16"/>
</g>
<!-- 11 -->
<g id="node12" class="node">
<title>11</title>
<polygon fill="aliceblue" stroke="transparent" points="231.5,-525 60.5,-525 60.5,-483 231.5,-483 231.5,-525"/>
<polygon fill="none" stroke="black" points="61,-483 61,-525 108,-525 108,-483 61,-483"/>
<text text-anchor="start" x="69" y="-507" font-family="Linux libertine" font-size="10.00">flatten</text>
<text text-anchor="start" x="66" y="-496" font-family="Linux libertine" font-size="10.00">depth:2</text>
<polygon fill="none" stroke="black" points="108,-504 108,-525 155,-525 155,-504 108,-504"/>
<text text-anchor="start" x="117.5" y="-512" font-family="Linux libertine" font-size="10.00">input:</text>
<polygon fill="none" stroke="black" points="155,-504 155,-525 232,-525 232,-504 155,-504"/>
<text text-anchor="start" x="160" y="-512" font-family="Linux libertine" font-size="10.00">(1, 1280, 1, 1) </text>
<polygon fill="none" stroke="black" points="108,-483 108,-504 155,-504 155,-483 108,-483"/>
<text text-anchor="start" x="113" y="-491" font-family="Linux libertine" font-size="10.00">output: </text>
<polygon fill="none" stroke="black" points="155,-483 155,-504 232,-504 232,-483 155,-483"/>
<text text-anchor="start" x="171.5" y="-491" font-family="Linux libertine" font-size="10.00">(1, 1280) </text>
</g>
<!-- 10&#45;&gt;11 -->
<g id="edge11" class="edge">
<title>10&#45;&gt;11</title>
<path fill="none" stroke="black" d="M146,-560.63C146,-552.82 146,-543.73 146,-535.18"/>
<polygon fill="black" stroke="black" points="149.5,-535.16 146,-525.16 142.5,-535.16 149.5,-535.16"/>
</g>
<!-- 12 -->
<g id="node13" class="node">
<title>12</title>
<polygon fill="#c1ffc1" stroke="transparent" points="220,-446 72,-446 72,-404 220,-404 220,-446"/>
<polygon fill="none" stroke="black" points="72,-404 72,-446 119,-446 119,-404 72,-404"/>
<text text-anchor="start" x="80.5" y="-428" font-family="Linux libertine" font-size="10.00">Linear</text>
<text text-anchor="start" x="77" y="-417" font-family="Linux libertine" font-size="10.00">depth:3</text>
<polygon fill="none" stroke="black" points="119,-425 119,-446 166,-446 166,-425 119,-425"/>
<text text-anchor="start" x="128.5" y="-433" font-family="Linux libertine" font-size="10.00">input:</text>
<polygon fill="none" stroke="black" points="166,-425 166,-446 220,-446 220,-425 166,-425"/>
<text text-anchor="start" x="171" y="-433" font-family="Linux libertine" font-size="10.00">(1, 1280) </text>
<polygon fill="none" stroke="black" points="119,-404 119,-425 166,-425 166,-404 119,-404"/>
<text text-anchor="start" x="124" y="-412" font-family="Linux libertine" font-size="10.00">output: </text>
<polygon fill="none" stroke="black" points="166,-404 166,-425 220,-425 220,-404 166,-404"/>
<text text-anchor="start" x="174" y="-412" font-family="Linux libertine" font-size="10.00">(1, 128) </text>
</g>
<!-- 11&#45;&gt;12 -->
<g id="edge12" class="edge">
<title>11&#45;&gt;12</title>
<path fill="none" stroke="black" d="M146,-482.77C146,-474.63 146,-465.08 146,-456.16"/>
<polygon fill="black" stroke="black" points="149.5,-456.1 146,-446.1 142.5,-456.1 149.5,-456.1"/>
</g>
<!-- 13 -->
<g id="node14" class="node">
<title>13</title>
<polygon fill="#c1ffc1" stroke="transparent" points="217,-368 75,-368 75,-326 217,-326 217,-368"/>
<polygon fill="none" stroke="black" points="75,-326 75,-368 122,-368 122,-326 75,-326"/>
<text text-anchor="start" x="86" y="-350" font-family="Linux libertine" font-size="10.00">ReLU</text>
<text text-anchor="start" x="80" y="-339" font-family="Linux libertine" font-size="10.00">depth:3</text>
<polygon fill="none" stroke="black" points="122,-347 122,-368 169,-368 169,-347 122,-347"/>
<text text-anchor="start" x="131.5" y="-355" font-family="Linux libertine" font-size="10.00">input:</text>
<polygon fill="none" stroke="black" points="169,-347 169,-368 217,-368 217,-347 169,-347"/>
<text text-anchor="start" x="174" y="-355" font-family="Linux libertine" font-size="10.00">(1, 128) </text>
<polygon fill="none" stroke="black" points="122,-326 122,-347 169,-347 169,-326 122,-326"/>
<text text-anchor="start" x="127" y="-334" font-family="Linux libertine" font-size="10.00">output: </text>
<polygon fill="none" stroke="black" points="169,-326 169,-347 217,-347 217,-326 169,-326"/>
<text text-anchor="start" x="174" y="-334" font-family="Linux libertine" font-size="10.00">(1, 128) </text>
</g>
<!-- 12&#45;&gt;13 -->
<g id="edge13" class="edge">
<title>12&#45;&gt;13</title>
<path fill="none" stroke="black" d="M146,-403.63C146,-395.82 146,-386.73 146,-378.18"/>
<polygon fill="black" stroke="black" points="149.5,-378.16 146,-368.16 142.5,-378.16 149.5,-378.16"/>
</g>
<!-- 14 -->
<g id="node15" class="node">
<title>14</title>
<polygon fill="#c1ffc1" stroke="transparent" points="231.5,-290 60.5,-290 60.5,-248 231.5,-248 231.5,-290"/>
<polygon fill="none" stroke="black" points="61,-248 61,-290 137,-290 137,-248 61,-248"/>
<text text-anchor="start" x="66" y="-272" font-family="Linux libertine" font-size="10.00">BatchNorm1d</text>
<text text-anchor="start" x="80.5" y="-261" font-family="Linux libertine" font-size="10.00">depth:3</text>
<polygon fill="none" stroke="black" points="137,-269 137,-290 184,-290 184,-269 137,-269"/>
<text text-anchor="start" x="146.5" y="-277" font-family="Linux libertine" font-size="10.00">input:</text>
<polygon fill="none" stroke="black" points="184,-269 184,-290 232,-290 232,-269 184,-269"/>
<text text-anchor="start" x="189" y="-277" font-family="Linux libertine" font-size="10.00">(1, 128) </text>
<polygon fill="none" stroke="black" points="137,-248 137,-269 184,-269 184,-248 137,-248"/>
<text text-anchor="start" x="142" y="-256" font-family="Linux libertine" font-size="10.00">output: </text>
<polygon fill="none" stroke="black" points="184,-248 184,-269 232,-269 232,-248 184,-248"/>
<text text-anchor="start" x="189" y="-256" font-family="Linux libertine" font-size="10.00">(1, 128) </text>
</g>
<!-- 13&#45;&gt;14 -->
<g id="edge14" class="edge">
<title>13&#45;&gt;14</title>
<path fill="none" stroke="black" d="M146,-325.63C146,-317.82 146,-308.73 146,-300.18"/>
<polygon fill="black" stroke="black" points="149.5,-300.16 146,-290.16 142.5,-300.16 149.5,-300.16"/>
</g>
<!-- 15 -->
<g id="node16" class="node">
<title>15</title>
<polygon fill="#c1ffc1" stroke="transparent" points="218.5,-212 73.5,-212 73.5,-170 218.5,-170 218.5,-212"/>
<polygon fill="none" stroke="black" points="74,-170 74,-212 124,-212 124,-170 74,-170"/>
<text text-anchor="start" x="79" y="-194" font-family="Linux libertine" font-size="10.00">Dropout</text>
<text text-anchor="start" x="80.5" y="-183" font-family="Linux libertine" font-size="10.00">depth:3</text>
<polygon fill="none" stroke="black" points="124,-191 124,-212 171,-212 171,-191 124,-191"/>
<text text-anchor="start" x="133.5" y="-199" font-family="Linux libertine" font-size="10.00">input:</text>
<polygon fill="none" stroke="black" points="171,-191 171,-212 219,-212 219,-191 171,-191"/>
<text text-anchor="start" x="176" y="-199" font-family="Linux libertine" font-size="10.00">(1, 128) </text>
<polygon fill="none" stroke="black" points="124,-170 124,-191 171,-191 171,-170 124,-170"/>
<text text-anchor="start" x="129" y="-178" font-family="Linux libertine" font-size="10.00">output: </text>
<polygon fill="none" stroke="black" points="171,-170 171,-191 219,-191 219,-170 171,-170"/>
<text text-anchor="start" x="176" y="-178" font-family="Linux libertine" font-size="10.00">(1, 128) </text>
</g>
<!-- 14&#45;&gt;15 -->
<g id="edge15" class="edge">
<title>14&#45;&gt;15</title>
<path fill="none" stroke="black" d="M146,-247.63C146,-239.82 146,-230.73 146,-222.18"/>
<polygon fill="black" stroke="black" points="149.5,-222.16 146,-212.16 142.5,-222.16 149.5,-222.16"/>
</g>
<!-- 16 -->
<g id="node17" class="node">
<title>16</title>
<polygon fill="#c1ffc1" stroke="transparent" points="217,-134 75,-134 75,-92 217,-92 217,-134"/>
<polygon fill="none" stroke="black" points="75,-92 75,-134 122,-134 122,-92 75,-92"/>
<text text-anchor="start" x="83.5" y="-116" font-family="Linux libertine" font-size="10.00">Linear</text>
<text text-anchor="start" x="80" y="-105" font-family="Linux libertine" font-size="10.00">depth:3</text>
<polygon fill="none" stroke="black" points="122,-113 122,-134 169,-134 169,-113 122,-113"/>
<text text-anchor="start" x="131.5" y="-121" font-family="Linux libertine" font-size="10.00">input:</text>
<polygon fill="none" stroke="black" points="169,-113 169,-134 217,-134 217,-113 169,-113"/>
<text text-anchor="start" x="174" y="-121" font-family="Linux libertine" font-size="10.00">(1, 128) </text>
<polygon fill="none" stroke="black" points="122,-92 122,-113 169,-113 169,-92 122,-92"/>
<text text-anchor="start" x="127" y="-100" font-family="Linux libertine" font-size="10.00">output: </text>
<polygon fill="none" stroke="black" points="169,-92 169,-113 217,-113 217,-92 169,-92"/>
<text text-anchor="start" x="180" y="-100" font-family="Linux libertine" font-size="10.00">(1, 7) </text>
</g>
<!-- 15&#45;&gt;16 -->
<g id="edge16" class="edge">
<title>15&#45;&gt;16</title>
<path fill="none" stroke="black" d="M146,-169.63C146,-161.82 146,-152.73 146,-144.18"/>
<polygon fill="black" stroke="black" points="149.5,-144.16 146,-134.16 142.5,-144.16 149.5,-144.16"/>
</g>
<!-- 17 -->
<g id="node18" class="node">
<title>17</title>
<polygon fill="lightyellow" stroke="transparent" points="201,-56 91,-56 91,-24 201,-24 201,-56"/>
<polygon fill="none" stroke="black" points="91,-24 91,-56 167,-56 167,-24 91,-24"/>
<text text-anchor="start" x="96" y="-43" font-family="Linux libertine" font-size="10.00">output&#45;tensor</text>
<text text-anchor="start" x="110.5" y="-32" font-family="Linux libertine" font-size="10.00">depth:0</text>
<polygon fill="none" stroke="black" points="167,-24 167,-56 201,-56 201,-24 167,-24"/>
<text text-anchor="start" x="172" y="-37.5" font-family="Linux libertine" font-size="10.00">(1, 7)</text>
</g>
<!-- 16&#45;&gt;17 -->
<g id="edge17" class="edge">
<title>16&#45;&gt;17</title>
<path fill="none" stroke="black" d="M146,-91.84C146,-83.89 146,-74.66 146,-66.26"/>
<polygon fill="black" stroke="black" points="149.5,-66.24 146,-56.24 142.5,-66.24 149.5,-66.24"/>
</g>
</g>
</svg>
