<?xml version="1.0" encoding="UTF-8" standalone="no"?>
<!DOCTYPE svg PUBLIC "-//W3C//DTD SVG 1.1//EN"
 "http://www.w3.org/Graphics/SVG/1.1/DTD/svg11.dtd">
<!-- Generated by graphviz version 2.43.0 (0)
 -->
<!-- Title: model Pages: 1 -->
<svg width="201pt" height="1274pt"
 viewBox="0.00 0.00 201.48 1274.00" xmlns="http://www.w3.org/2000/svg" xmlns:xlink="http://www.w3.org/1999/xlink">
<g id="graph0" class="graph" transform="scale(0.77 0.77) rotate(0) translate(4 1640)">
<title>model</title>
<polygon fill="white" stroke="transparent" points="-4,4 -4,-1640 256,-1640 256,4 -4,4"/>
<g id="clust1" class="cluster">
<title>cluster_2</title>
<polygon fill="none" stroke="black" stroke-dasharray="5,2" points="8,-8 8,-1596 244,-1596 244,-8 8,-8"/>
<text text-anchor="middle" x="38" y="-1582.4" font-family="Times,serif" font-size="12.00">ResNet</text>
</g>
<g id="clust2" class="cluster">
<title>cluster_3</title>
<polygon fill="none" stroke="black" stroke-dasharray="5,2" points="26,-1126 26,-1283 226,-1283 226,-1126 26,-1126"/>
<text text-anchor="middle" x="66" y="-1269.4" font-family="Times,serif" font-size="12.00">Sequential</text>
</g>
<g id="clust3" class="cluster">
<title>cluster_4</title>
<polygon fill="none" stroke="black" stroke-dasharray="5,2" points="26,-961 26,-1118 226,-1118 226,-961 26,-961"/>
<text text-anchor="middle" x="66" y="-1104.4" font-family="Times,serif" font-size="12.00">Sequential</text>
</g>
<g id="clust4" class="cluster">
<title>cluster_5</title>
<polygon fill="none" stroke="black" stroke-dasharray="5,2" points="30,-796 30,-953 222,-953 222,-796 30,-796"/>
<text text-anchor="middle" x="70" y="-939.4" font-family="Times,serif" font-size="12.00">Sequential</text>
</g>
<g id="clust5" class="cluster">
<title>cluster_6</title>
<polygon fill="none" stroke="black" stroke-dasharray="5,2" points="30,-631 30,-788 222,-788 222,-631 30,-631"/>
<text text-anchor="middle" x="70" y="-774.4" font-family="Times,serif" font-size="12.00">Sequential</text>
</g>
<g id="clust6" class="cluster">
<title>cluster_7</title>
<polygon fill="none" stroke="black" stroke-dasharray="5,2" points="32,-16 32,-475 220,-475 220,-16 32,-16"/>
<text text-anchor="middle" x="72" y="-461.4" font-family="Times,serif" font-size="12.00">Sequential</text>
</g>
<!-- 0 -->
<g id="node1" class="node">
<title>0</title>
<polygon fill="lightyellow" stroke="transparent" points="194,-1636 58,-1636 58,-1604 194,-1604 194,-1636"/>
<polygon fill="none" stroke="black" points="58,-1604 58,-1636 126,-1636 126,-1604 58,-1604"/>
<text text-anchor="start" x="63" y="-1623" font-family="Linux libertine" font-size="10.00">input&#45;tensor</text>
<text text-anchor="start" x="73.5" y="-1612" font-family="Linux libertine" font-size="10.00">depth:0</text>
<polygon fill="none" stroke="black" points="126,-1604 126,-1636 194,-1636 194,-1604 126,-1604"/>
<text text-anchor="start" x="131" y="-1617.5" font-family="Linux libertine" font-size="10.00">(1, 3, 64, 64)</text>
</g>
<!-- 1 -->
<g id="node2" class="node">
<title>1</title>
<polygon fill="#c1ffc1" stroke="transparent" points="211.5,-1567 40.5,-1567 40.5,-1525 211.5,-1525 211.5,-1567"/>
<polygon fill="none" stroke="black" points="41,-1525 41,-1567 88,-1567 88,-1525 41,-1525"/>
<text text-anchor="start" x="46.5" y="-1549" font-family="Linux libertine" font-size="10.00">Conv2d</text>
<text text-anchor="start" x="46" y="-1538" font-family="Linux libertine" font-size="10.00">depth:2</text>
<polygon fill="none" stroke="black" points="88,-1546 88,-1567 135,-1567 135,-1546 88,-1546"/>
<text text-anchor="start" x="97.5" y="-1554" font-family="Linux libertine" font-size="10.00">input:</text>
<polygon fill="none" stroke="black" points="135,-1546 135,-1567 212,-1567 212,-1546 135,-1546"/>
<text text-anchor="start" x="143" y="-1554" font-family="Linux libertine" font-size="10.00">(1, 3, 64, 64) </text>
<polygon fill="none" stroke="black" points="88,-1525 88,-1546 135,-1546 135,-1525 88,-1525"/>
<text text-anchor="start" x="93" y="-1533" font-family="Linux libertine" font-size="10.00">output: </text>
<polygon fill="none" stroke="black" points="135,-1525 135,-1546 212,-1546 212,-1525 135,-1525"/>
<text text-anchor="start" x="140" y="-1533" font-family="Linux libertine" font-size="10.00">(1, 64, 32, 32) </text>
</g>
<!-- 0&#45;&gt;1 -->
<g id="edge1" class="edge">
<title>0&#45;&gt;1</title>
<path fill="none" stroke="black" d="M126,-1603.73C126,-1596.08 126,-1586.52 126,-1577.45"/>
<polygon fill="black" stroke="black" points="129.5,-1577.17 126,-1567.17 122.5,-1577.17 129.5,-1577.17"/>
</g>
<!-- 2 -->
<g id="node3" class="node">
<title>2</title>
<polygon fill="#c1ffc1" stroke="transparent" points="226,-1489 26,-1489 26,-1447 226,-1447 226,-1489"/>
<polygon fill="none" stroke="black" points="26,-1447 26,-1489 102,-1489 102,-1447 26,-1447"/>
<text text-anchor="start" x="31" y="-1471" font-family="Linux libertine" font-size="10.00">BatchNorm2d</text>
<text text-anchor="start" x="45.5" y="-1460" font-family="Linux libertine" font-size="10.00">depth:2</text>
<polygon fill="none" stroke="black" points="102,-1468 102,-1489 149,-1489 149,-1468 102,-1468"/>
<text text-anchor="start" x="111.5" y="-1476" font-family="Linux libertine" font-size="10.00">input:</text>
<polygon fill="none" stroke="black" points="149,-1468 149,-1489 226,-1489 226,-1468 149,-1468"/>
<text text-anchor="start" x="154" y="-1476" font-family="Linux libertine" font-size="10.00">(1, 64, 32, 32) </text>
<polygon fill="none" stroke="black" points="102,-1447 102,-1468 149,-1468 149,-1447 102,-1447"/>
<text text-anchor="start" x="107" y="-1455" font-family="Linux libertine" font-size="10.00">output: </text>
<polygon fill="none" stroke="black" points="149,-1447 149,-1468 226,-1468 226,-1447 149,-1447"/>
<text text-anchor="start" x="154" y="-1455" font-family="Linux libertine" font-size="10.00">(1, 64, 32, 32) </text>
</g>
<!-- 1&#45;&gt;2 -->
<g id="edge2" class="edge">
<title>1&#45;&gt;2</title>
<path fill="none" stroke="black" d="M126,-1524.63C126,-1516.82 126,-1507.73 126,-1499.18"/>
<polygon fill="black" stroke="black" points="129.5,-1499.16 126,-1489.16 122.5,-1499.16 129.5,-1499.16"/>
</g>
<!-- 3 -->
<g id="node4" class="node">
<title>3</title>
<polygon fill="#c1ffc1" stroke="transparent" points="211.5,-1411 40.5,-1411 40.5,-1369 211.5,-1369 211.5,-1411"/>
<polygon fill="none" stroke="black" points="41,-1369 41,-1411 88,-1411 88,-1369 41,-1369"/>
<text text-anchor="start" x="52" y="-1393" font-family="Linux libertine" font-size="10.00">ReLU</text>
<text text-anchor="start" x="46" y="-1382" font-family="Linux libertine" font-size="10.00">depth:2</text>
<polygon fill="none" stroke="black" points="88,-1390 88,-1411 135,-1411 135,-1390 88,-1390"/>
<text text-anchor="start" x="97.5" y="-1398" font-family="Linux libertine" font-size="10.00">input:</text>
<polygon fill="none" stroke="black" points="135,-1390 135,-1411 212,-1411 212,-1390 135,-1390"/>
<text text-anchor="start" x="140" y="-1398" font-family="Linux libertine" font-size="10.00">(1, 64, 32, 32) </text>
<polygon fill="none" stroke="black" points="88,-1369 88,-1390 135,-1390 135,-1369 88,-1369"/>
<text text-anchor="start" x="93" y="-1377" font-family="Linux libertine" font-size="10.00">output: </text>
<polygon fill="none" stroke="black" points="135,-1369 135,-1390 212,-1390 212,-1369 135,-1369"/>
<text text-anchor="start" x="140" y="-1377" font-family="Linux libertine" font-size="10.00">(1, 64, 32, 32) </text>
</g>
<!-- 2&#45;&gt;3 -->
<g id="edge3" class="edge">
<title>2&#45;&gt;3</title>
<path fill="none" stroke="black" d="M126,-1446.63C126,-1438.82 126,-1429.73 126,-1421.18"/>
<polygon fill="black" stroke="black" points="129.5,-1421.16 126,-1411.16 122.5,-1421.16 129.5,-1421.16"/>
</g>
<!-- 4 -->
<g id="node5" class="node">
<title>4</title>
<polygon fill="#c1ffc1" stroke="transparent" points="219,-1333 33,-1333 33,-1291 219,-1291 219,-1333"/>
<polygon fill="none" stroke="black" points="33,-1291 33,-1333 95,-1333 95,-1291 33,-1291"/>
<text text-anchor="start" x="38" y="-1315" font-family="Linux libertine" font-size="10.00">MaxPool2d</text>
<text text-anchor="start" x="45.5" y="-1304" font-family="Linux libertine" font-size="10.00">depth:2</text>
<polygon fill="none" stroke="black" points="95,-1312 95,-1333 142,-1333 142,-1312 95,-1312"/>
<text text-anchor="start" x="104.5" y="-1320" font-family="Linux libertine" font-size="10.00">input:</text>
<polygon fill="none" stroke="black" points="142,-1312 142,-1333 219,-1333 219,-1312 142,-1312"/>
<text text-anchor="start" x="147" y="-1320" font-family="Linux libertine" font-size="10.00">(1, 64, 32, 32) </text>
<polygon fill="none" stroke="black" points="95,-1291 95,-1312 142,-1312 142,-1291 95,-1291"/>
<text text-anchor="start" x="100" y="-1299" font-family="Linux libertine" font-size="10.00">output: </text>
<polygon fill="none" stroke="black" points="142,-1291 142,-1312 219,-1312 219,-1291 142,-1291"/>
<text text-anchor="start" x="147" y="-1299" font-family="Linux libertine" font-size="10.00">(1, 64, 16, 16) </text>
</g>
<!-- 3&#45;&gt;4 -->
<g id="edge4" class="edge">
<title>3&#45;&gt;4</title>
<path fill="none" stroke="black" d="M126,-1368.63C126,-1360.82 126,-1351.73 126,-1343.18"/>
<polygon fill="black" stroke="black" points="129.5,-1343.16 126,-1333.16 122.5,-1343.16 129.5,-1343.16"/>
</g>
<!-- 5 -->
<g id="node6" class="node">
<title>5</title>
<polygon fill="#c1ffc1" stroke="transparent" points="217.5,-1254 34.5,-1254 34.5,-1212 217.5,-1212 217.5,-1254"/>
<polygon fill="none" stroke="black" points="35,-1212 35,-1254 94,-1254 94,-1212 35,-1212"/>
<text text-anchor="start" x="40" y="-1236" font-family="Linux libertine" font-size="10.00">BasicBlock</text>
<text text-anchor="start" x="46" y="-1225" font-family="Linux libertine" font-size="10.00">depth:3</text>
<polygon fill="none" stroke="black" points="94,-1233 94,-1254 141,-1254 141,-1233 94,-1233"/>
<text text-anchor="start" x="103.5" y="-1241" font-family="Linux libertine" font-size="10.00">input:</text>
<polygon fill="none" stroke="black" points="141,-1233 141,-1254 218,-1254 218,-1233 141,-1233"/>
<text text-anchor="start" x="146" y="-1241" font-family="Linux libertine" font-size="10.00">(1, 64, 16, 16) </text>
<polygon fill="none" stroke="black" points="94,-1212 94,-1233 141,-1233 141,-1212 94,-1212"/>
<text text-anchor="start" x="99" y="-1220" font-family="Linux libertine" font-size="10.00">output: </text>
<polygon fill="none" stroke="black" points="141,-1212 141,-1233 218,-1233 218,-1212 141,-1212"/>
<text text-anchor="start" x="146" y="-1220" font-family="Linux libertine" font-size="10.00">(1, 64, 16, 16) </text>
</g>
<!-- 4&#45;&gt;5 -->
<g id="edge5" class="edge">
<title>4&#45;&gt;5</title>
<path fill="none" stroke="black" d="M126,-1290.77C126,-1282.63 126,-1273.08 126,-1264.16"/>
<polygon fill="black" stroke="black" points="129.5,-1264.1 126,-1254.1 122.5,-1264.1 129.5,-1264.1"/>
</g>
<!-- 6 -->
<g id="node7" class="node">
<title>6</title>
<polygon fill="#c1ffc1" stroke="transparent" points="217.5,-1176 34.5,-1176 34.5,-1134 217.5,-1134 217.5,-1176"/>
<polygon fill="none" stroke="black" points="35,-1134 35,-1176 94,-1176 94,-1134 35,-1134"/>
<text text-anchor="start" x="40" y="-1158" font-family="Linux libertine" font-size="10.00">BasicBlock</text>
<text text-anchor="start" x="46" y="-1147" font-family="Linux libertine" font-size="10.00">depth:3</text>
<polygon fill="none" stroke="black" points="94,-1155 94,-1176 141,-1176 141,-1155 94,-1155"/>
<text text-anchor="start" x="103.5" y="-1163" font-family="Linux libertine" font-size="10.00">input:</text>
<polygon fill="none" stroke="black" points="141,-1155 141,-1176 218,-1176 218,-1155 141,-1155"/>
<text text-anchor="start" x="146" y="-1163" font-family="Linux libertine" font-size="10.00">(1, 64, 16, 16) </text>
<polygon fill="none" stroke="black" points="94,-1134 94,-1155 141,-1155 141,-1134 94,-1134"/>
<text text-anchor="start" x="99" y="-1142" font-family="Linux libertine" font-size="10.00">output: </text>
<polygon fill="none" stroke="black" points="141,-1134 141,-1155 218,-1155 218,-1134 141,-1134"/>
<text text-anchor="start" x="146" y="-1142" font-family="Linux libertine" font-size="10.00">(1, 64, 16, 16) </text>
</g>
<!-- 5&#45;&gt;6 -->
<g id="edge6" class="edge">
<title>5&#45;&gt;6</title>
<path fill="none" stroke="black" d="M126,-1211.63C126,-1203.82 126,-1194.73 126,-1186.18"/>
<polygon fill="black" stroke="black" points="129.5,-1186.16 126,-1176.16 122.5,-1186.16 129.5,-1186.16"/>
</g>
<!-- 7 -->
<g id="node8" class="node">
<title>7</title>
<polygon fill="#c1ffc1" stroke="transparent" points="217.5,-1089 34.5,-1089 34.5,-1047 217.5,-1047 217.5,-1089"/>
<polygon fill="none" stroke="black" points="35,-1047 35,-1089 94,-1089 94,-1047 35,-1047"/>
<text text-anchor="start" x="40" y="-1071" font-family="Linux libertine" font-size="10.00">BasicBlock</text>
<text text-anchor="start" x="46" y="-1060" font-family="Linux libertine" font-size="10.00">depth:3</text>
<polygon fill="none" stroke="black" points="94,-1068 94,-1089 141,-1089 141,-1068 94,-1068"/>
<text text-anchor="start" x="103.5" y="-1076" font-family="Linux libertine" font-size="10.00">input:</text>
<polygon fill="none" stroke="black" points="141,-1068 141,-1089 218,-1089 218,-1068 141,-1068"/>
<text text-anchor="start" x="146" y="-1076" font-family="Linux libertine" font-size="10.00">(1, 64, 16, 16) </text>
<polygon fill="none" stroke="black" points="94,-1047 94,-1068 141,-1068 141,-1047 94,-1047"/>
<text text-anchor="start" x="99" y="-1055" font-family="Linux libertine" font-size="10.00">output: </text>
<polygon fill="none" stroke="black" points="141,-1047 141,-1068 218,-1068 218,-1047 141,-1047"/>
<text text-anchor="start" x="149" y="-1055" font-family="Linux libertine" font-size="10.00">(1, 128, 8, 8) </text>
</g>
<!-- 6&#45;&gt;7 -->
<g id="edge7" class="edge">
<title>6&#45;&gt;7</title>
<path fill="none" stroke="black" d="M126,-1133.86C126,-1123.56 126,-1110.81 126,-1099.35"/>
<polygon fill="black" stroke="black" points="129.5,-1099.29 126,-1089.29 122.5,-1099.29 129.5,-1099.29"/>
</g>
<!-- 8 -->
<g id="node9" class="node">
<title>8</title>
<polygon fill="#c1ffc1" stroke="transparent" points="214.5,-1011 37.5,-1011 37.5,-969 214.5,-969 214.5,-1011"/>
<polygon fill="none" stroke="black" points="38,-969 38,-1011 97,-1011 97,-969 38,-969"/>
<text text-anchor="start" x="43" y="-993" font-family="Linux libertine" font-size="10.00">BasicBlock</text>
<text text-anchor="start" x="49" y="-982" font-family="Linux libertine" font-size="10.00">depth:3</text>
<polygon fill="none" stroke="black" points="97,-990 97,-1011 144,-1011 144,-990 97,-990"/>
<text text-anchor="start" x="106.5" y="-998" font-family="Linux libertine" font-size="10.00">input:</text>
<polygon fill="none" stroke="black" points="144,-990 144,-1011 215,-1011 215,-990 144,-990"/>
<text text-anchor="start" x="149" y="-998" font-family="Linux libertine" font-size="10.00">(1, 128, 8, 8) </text>
<polygon fill="none" stroke="black" points="97,-969 97,-990 144,-990 144,-969 97,-969"/>
<text text-anchor="start" x="102" y="-977" font-family="Linux libertine" font-size="10.00">output: </text>
<polygon fill="none" stroke="black" points="144,-969 144,-990 215,-990 215,-969 144,-969"/>
<text text-anchor="start" x="149" y="-977" font-family="Linux libertine" font-size="10.00">(1, 128, 8, 8) </text>
</g>
<!-- 7&#45;&gt;8 -->
<g id="edge8" class="edge">
<title>7&#45;&gt;8</title>
<path fill="none" stroke="black" d="M126,-1046.63C126,-1038.82 126,-1029.73 126,-1021.18"/>
<polygon fill="black" stroke="black" points="129.5,-1021.16 126,-1011.16 122.5,-1021.16 129.5,-1021.16"/>
</g>
<!-- 9 -->
<g id="node10" class="node">
<title>9</title>
<polygon fill="#c1ffc1" stroke="transparent" points="214.5,-924 37.5,-924 37.5,-882 214.5,-882 214.5,-924"/>
<polygon fill="none" stroke="black" points="38,-882 38,-924 97,-924 97,-882 38,-882"/>
<text text-anchor="start" x="43" y="-906" font-family="Linux libertine" font-size="10.00">BasicBlock</text>
<text text-anchor="start" x="49" y="-895" font-family="Linux libertine" font-size="10.00">depth:3</text>
<polygon fill="none" stroke="black" points="97,-903 97,-924 144,-924 144,-903 97,-903"/>
<text text-anchor="start" x="106.5" y="-911" font-family="Linux libertine" font-size="10.00">input:</text>
<polygon fill="none" stroke="black" points="144,-903 144,-924 215,-924 215,-903 144,-903"/>
<text text-anchor="start" x="149" y="-911" font-family="Linux libertine" font-size="10.00">(1, 128, 8, 8) </text>
<polygon fill="none" stroke="black" points="97,-882 97,-903 144,-903 144,-882 97,-882"/>
<text text-anchor="start" x="102" y="-890" font-family="Linux libertine" font-size="10.00">output: </text>
<polygon fill="none" stroke="black" points="144,-882 144,-903 215,-903 215,-882 144,-882"/>
<text text-anchor="start" x="149" y="-890" font-family="Linux libertine" font-size="10.00">(1, 256, 4, 4) </text>
</g>
<!-- 8&#45;&gt;9 -->
<g id="edge9" class="edge">
<title>8&#45;&gt;9</title>
<path fill="none" stroke="black" d="M126,-968.86C126,-958.56 126,-945.81 126,-934.35"/>
<polygon fill="black" stroke="black" points="129.5,-934.29 126,-924.29 122.5,-934.29 129.5,-934.29"/>
</g>
<!-- 10 -->
<g id="node11" class="node">
<title>10</title>
<polygon fill="#c1ffc1" stroke="transparent" points="214.5,-846 37.5,-846 37.5,-804 214.5,-804 214.5,-846"/>
<polygon fill="none" stroke="black" points="38,-804 38,-846 97,-846 97,-804 38,-804"/>
<text text-anchor="start" x="43" y="-828" font-family="Linux libertine" font-size="10.00">BasicBlock</text>
<text text-anchor="start" x="49" y="-817" font-family="Linux libertine" font-size="10.00">depth:3</text>
<polygon fill="none" stroke="black" points="97,-825 97,-846 144,-846 144,-825 97,-825"/>
<text text-anchor="start" x="106.5" y="-833" font-family="Linux libertine" font-size="10.00">input:</text>
<polygon fill="none" stroke="black" points="144,-825 144,-846 215,-846 215,-825 144,-825"/>
<text text-anchor="start" x="149" y="-833" font-family="Linux libertine" font-size="10.00">(1, 256, 4, 4) </text>
<polygon fill="none" stroke="black" points="97,-804 97,-825 144,-825 144,-804 97,-804"/>
<text text-anchor="start" x="102" y="-812" font-family="Linux libertine" font-size="10.00">output: </text>
<polygon fill="none" stroke="black" points="144,-804 144,-825 215,-825 215,-804 144,-804"/>
<text text-anchor="start" x="149" y="-812" font-family="Linux libertine" font-size="10.00">(1, 256, 4, 4) </text>
</g>
<!-- 9&#45;&gt;10 -->
<g id="edge10" class="edge">
<title>9&#45;&gt;10</title>
<path fill="none" stroke="black" d="M126,-881.63C126,-873.82 126,-864.73 126,-856.18"/>
<polygon fill="black" stroke="black" points="129.5,-856.16 126,-846.16 122.5,-856.16 129.5,-856.16"/>
</g>
<!-- 11 -->
<g id="node12" class="node">
<title>11</title>
<polygon fill="#c1ffc1" stroke="transparent" points="214.5,-759 37.5,-759 37.5,-717 214.5,-717 214.5,-759"/>
<polygon fill="none" stroke="black" points="38,-717 38,-759 97,-759 97,-717 38,-717"/>
<text text-anchor="start" x="43" y="-741" font-family="Linux libertine" font-size="10.00">BasicBlock</text>
<text text-anchor="start" x="49" y="-730" font-family="Linux libertine" font-size="10.00">depth:3</text>
<polygon fill="none" stroke="black" points="97,-738 97,-759 144,-759 144,-738 97,-738"/>
<text text-anchor="start" x="106.5" y="-746" font-family="Linux libertine" font-size="10.00">input:</text>
<polygon fill="none" stroke="black" points="144,-738 144,-759 215,-759 215,-738 144,-738"/>
<text text-anchor="start" x="149" y="-746" font-family="Linux libertine" font-size="10.00">(1, 256, 4, 4) </text>
<polygon fill="none" stroke="black" points="97,-717 97,-738 144,-738 144,-717 97,-717"/>
<text text-anchor="start" x="102" y="-725" font-family="Linux libertine" font-size="10.00">output: </text>
<polygon fill="none" stroke="black" points="144,-717 144,-738 215,-738 215,-717 144,-717"/>
<text text-anchor="start" x="149" y="-725" font-family="Linux libertine" font-size="10.00">(1, 512, 2, 2) </text>
</g>
<!-- 10&#45;&gt;11 -->
<g id="edge11" class="edge">
<title>10&#45;&gt;11</title>
<path fill="none" stroke="black" d="M126,-803.86C126,-793.56 126,-780.81 126,-769.35"/>
<polygon fill="black" stroke="black" points="129.5,-769.29 126,-759.29 122.5,-769.29 129.5,-769.29"/>
</g>
<!-- 12 -->
<g id="node13" class="node">
<title>12</title>
<polygon fill="#c1ffc1" stroke="transparent" points="214.5,-681 37.5,-681 37.5,-639 214.5,-639 214.5,-681"/>
<polygon fill="none" stroke="black" points="38,-639 38,-681 97,-681 97,-639 38,-639"/>
<text text-anchor="start" x="43" y="-663" font-family="Linux libertine" font-size="10.00">BasicBlock</text>
<text text-anchor="start" x="49" y="-652" font-family="Linux libertine" font-size="10.00">depth:3</text>
<polygon fill="none" stroke="black" points="97,-660 97,-681 144,-681 144,-660 97,-660"/>
<text text-anchor="start" x="106.5" y="-668" font-family="Linux libertine" font-size="10.00">input:</text>
<polygon fill="none" stroke="black" points="144,-660 144,-681 215,-681 215,-660 144,-660"/>
<text text-anchor="start" x="149" y="-668" font-family="Linux libertine" font-size="10.00">(1, 512, 2, 2) </text>
<polygon fill="none" stroke="black" points="97,-639 97,-660 144,-660 144,-639 97,-639"/>
<text text-anchor="start" x="102" y="-647" font-family="Linux libertine" font-size="10.00">output: </text>
<polygon fill="none" stroke="black" points="144,-639 144,-660 215,-660 215,-639 144,-639"/>
<text text-anchor="start" x="149" y="-647" font-family="Linux libertine" font-size="10.00">(1, 512, 2, 2) </text>
</g>
<!-- 11&#45;&gt;12 -->
<g id="edge12" class="edge">
<title>11&#45;&gt;12</title>
<path fill="none" stroke="black" d="M126,-716.63C126,-708.82 126,-699.73 126,-691.18"/>
<polygon fill="black" stroke="black" points="129.5,-691.16 126,-681.16 122.5,-691.16 129.5,-691.16"/>
</g>
<!-- 13 -->
<g id="node14" class="node">
<title>13</title>
<polygon fill="#c1ffc1" stroke="transparent" points="236,-603 16,-603 16,-561 236,-561 236,-603"/>
<polygon fill="none" stroke="black" points="16,-561 16,-603 118,-603 118,-561 16,-561"/>
<text text-anchor="start" x="21" y="-585" font-family="Linux libertine" font-size="10.00">AdaptiveAvgPool2d</text>
<text text-anchor="start" x="48.5" y="-574" font-family="Linux libertine" font-size="10.00">depth:2</text>
<polygon fill="none" stroke="black" points="118,-582 118,-603 165,-603 165,-582 118,-582"/>
<text text-anchor="start" x="127.5" y="-590" font-family="Linux libertine" font-size="10.00">input:</text>
<polygon fill="none" stroke="black" points="165,-582 165,-603 236,-603 236,-582 165,-582"/>
<text text-anchor="start" x="170" y="-590" font-family="Linux libertine" font-size="10.00">(1, 512, 2, 2) </text>
<polygon fill="none" stroke="black" points="118,-561 118,-582 165,-582 165,-561 118,-561"/>
<text text-anchor="start" x="123" y="-569" font-family="Linux libertine" font-size="10.00">output: </text>
<polygon fill="none" stroke="black" points="165,-561 165,-582 236,-582 236,-561 165,-561"/>
<text text-anchor="start" x="170" y="-569" font-family="Linux libertine" font-size="10.00">(1, 512, 1, 1) </text>
</g>
<!-- 12&#45;&gt;13 -->
<g id="edge13" class="edge">
<title>12&#45;&gt;13</title>
<path fill="none" stroke="black" d="M126,-638.63C126,-630.82 126,-621.73 126,-613.18"/>
<polygon fill="black" stroke="black" points="129.5,-613.16 126,-603.16 122.5,-613.16 129.5,-613.16"/>
</g>
<!-- 14 -->
<g id="node15" class="node">
<title>14</title>
<polygon fill="aliceblue" stroke="transparent" points="208.5,-525 43.5,-525 43.5,-483 208.5,-483 208.5,-525"/>
<polygon fill="none" stroke="black" points="44,-483 44,-525 91,-525 91,-483 44,-483"/>
<text text-anchor="start" x="52" y="-507" font-family="Linux libertine" font-size="10.00">flatten</text>
<text text-anchor="start" x="49" y="-496" font-family="Linux libertine" font-size="10.00">depth:2</text>
<polygon fill="none" stroke="black" points="91,-504 91,-525 138,-525 138,-504 91,-504"/>
<text text-anchor="start" x="100.5" y="-512" font-family="Linux libertine" font-size="10.00">input:</text>
<polygon fill="none" stroke="black" points="138,-504 138,-525 209,-525 209,-504 138,-504"/>
<text text-anchor="start" x="143" y="-512" font-family="Linux libertine" font-size="10.00">(1, 512, 1, 1) </text>
<polygon fill="none" stroke="black" points="91,-483 91,-504 138,-504 138,-483 91,-483"/>
<text text-anchor="start" x="96" y="-491" font-family="Linux libertine" font-size="10.00">output: </text>
<polygon fill="none" stroke="black" points="138,-483 138,-504 209,-504 209,-483 138,-483"/>
<text text-anchor="start" x="154.5" y="-491" font-family="Linux libertine" font-size="10.00">(1, 512) </text>
</g>
<!-- 13&#45;&gt;14 -->
<g id="edge14" class="edge">
<title>13&#45;&gt;14</title>
<path fill="none" stroke="black" d="M126,-560.63C126,-552.82 126,-543.73 126,-535.18"/>
<polygon fill="black" stroke="black" points="129.5,-535.16 126,-525.16 122.5,-535.16 129.5,-535.16"/>
</g>
<!-- 15 -->
<g id="node16" class="node">
<title>15</title>
<polygon fill="#c1ffc1" stroke="transparent" points="197,-446 55,-446 55,-404 197,-404 197,-446"/>
<polygon fill="none" stroke="black" points="55,-404 55,-446 102,-446 102,-404 55,-404"/>
<text text-anchor="start" x="63.5" y="-428" font-family="Linux libertine" font-size="10.00">Linear</text>
<text text-anchor="start" x="60" y="-417" font-family="Linux libertine" font-size="10.00">depth:3</text>
<polygon fill="none" stroke="black" points="102,-425 102,-446 149,-446 149,-425 102,-425"/>
<text text-anchor="start" x="111.5" y="-433" font-family="Linux libertine" font-size="10.00">input:</text>
<polygon fill="none" stroke="black" points="149,-425 149,-446 197,-446 197,-425 149,-425"/>
<text text-anchor="start" x="154" y="-433" font-family="Linux libertine" font-size="10.00">(1, 512) </text>
<polygon fill="none" stroke="black" points="102,-404 102,-425 149,-425 149,-404 102,-404"/>
<text text-anchor="start" x="107" y="-412" font-family="Linux libertine" font-size="10.00">output: </text>
<polygon fill="none" stroke="black" points="149,-404 149,-425 197,-425 197,-404 149,-404"/>
<text text-anchor="start" x="154" y="-412" font-family="Linux libertine" font-size="10.00">(1, 256) </text>
</g>
<!-- 14&#45;&gt;15 -->
<g id="edge15" class="edge">
<title>14&#45;&gt;15</title>
<path fill="none" stroke="black" d="M126,-482.77C126,-474.63 126,-465.08 126,-456.16"/>
<polygon fill="black" stroke="black" points="129.5,-456.1 126,-446.1 122.5,-456.1 129.5,-456.1"/>
</g>
<!-- 16 -->
<g id="node17" class="node">
<title>16</title>
<polygon fill="#c1ffc1" stroke="transparent" points="197,-368 55,-368 55,-326 197,-326 197,-368"/>
<polygon fill="none" stroke="black" points="55,-326 55,-368 102,-368 102,-326 55,-326"/>
<text text-anchor="start" x="66" y="-350" font-family="Linux libertine" font-size="10.00">ReLU</text>
<text text-anchor="start" x="60" y="-339" font-family="Linux libertine" font-size="10.00">depth:3</text>
<polygon fill="none" stroke="black" points="102,-347 102,-368 149,-368 149,-347 102,-347"/>
<text text-anchor="start" x="111.5" y="-355" font-family="Linux libertine" font-size="10.00">input:</text>
<polygon fill="none" stroke="black" points="149,-347 149,-368 197,-368 197,-347 149,-347"/>
<text text-anchor="start" x="154" y="-355" font-family="Linux libertine" font-size="10.00">(1, 256) </text>
<polygon fill="none" stroke="black" points="102,-326 102,-347 149,-347 149,-326 102,-326"/>
<text text-anchor="start" x="107" y="-334" font-family="Linux libertine" font-size="10.00">output: </text>
<polygon fill="none" stroke="black" points="149,-326 149,-347 197,-347 197,-326 149,-326"/>
<text text-anchor="start" x="154" y="-334" font-family="Linux libertine" font-size="10.00">(1, 256) </text>
</g>
<!-- 15&#45;&gt;16 -->
<g id="edge16" class="edge">
<title>15&#45;&gt;16</title>
<path fill="none" stroke="black" d="M126,-403.63C126,-395.82 126,-386.73 126,-378.18"/>
<polygon fill="black" stroke="black" points="129.5,-378.16 126,-368.16 122.5,-378.16 129.5,-378.16"/>
</g>
<!-- 17 -->
<g id="node18" class="node">
<title>17</title>
<polygon fill="#c1ffc1" stroke="transparent" points="211.5,-290 40.5,-290 40.5,-248 211.5,-248 211.5,-290"/>
<polygon fill="none" stroke="black" points="41,-248 41,-290 117,-290 117,-248 41,-248"/>
<text text-anchor="start" x="46" y="-272" font-family="Linux libertine" font-size="10.00">BatchNorm1d</text>
<text text-anchor="start" x="60.5" y="-261" font-family="Linux libertine" font-size="10.00">depth:3</text>
<polygon fill="none" stroke="black" points="117,-269 117,-290 164,-290 164,-269 117,-269"/>
<text text-anchor="start" x="126.5" y="-277" font-family="Linux libertine" font-size="10.00">input:</text>
<polygon fill="none" stroke="black" points="164,-269 164,-290 212,-290 212,-269 164,-269"/>
<text text-anchor="start" x="169" y="-277" font-family="Linux libertine" font-size="10.00">(1, 256) </text>
<polygon fill="none" stroke="black" points="117,-248 117,-269 164,-269 164,-248 117,-248"/>
<text text-anchor="start" x="122" y="-256" font-family="Linux libertine" font-size="10.00">output: </text>
<polygon fill="none" stroke="black" points="164,-248 164,-269 212,-269 212,-248 164,-248"/>
<text text-anchor="start" x="169" y="-256" font-family="Linux libertine" font-size="10.00">(1, 256) </text>
</g>
<!-- 16&#45;&gt;17 -->
<g id="edge17" class="edge">
<title>16&#45;&gt;17</title>
<path fill="none" stroke="black" d="M126,-325.63C126,-317.82 126,-308.73 126,-300.18"/>
<polygon fill="black" stroke="black" points="129.5,-300.16 126,-290.16 122.5,-300.16 129.5,-300.16"/>
</g>
<!-- 18 -->
<g id="node19" class="node">
<title>18</title>
<polygon fill="#c1ffc1" stroke="transparent" points="198.5,-212 53.5,-212 53.5,-170 198.5,-170 198.5,-212"/>
<polygon fill="none" stroke="black" points="54,-170 54,-212 104,-212 104,-170 54,-170"/>
<text text-anchor="start" x="59" y="-194" font-family="Linux libertine" font-size="10.00">Dropout</text>
<text text-anchor="start" x="60.5" y="-183" font-family="Linux libertine" font-size="10.00">depth:3</text>
<polygon fill="none" stroke="black" points="104,-191 104,-212 151,-212 151,-191 104,-191"/>
<text text-anchor="start" x="113.5" y="-199" font-family="Linux libertine" font-size="10.00">input:</text>
<polygon fill="none" stroke="black" points="151,-191 151,-212 199,-212 199,-191 151,-191"/>
<text text-anchor="start" x="156" y="-199" font-family="Linux libertine" font-size="10.00">(1, 256) </text>
<polygon fill="none" stroke="black" points="104,-170 104,-191 151,-191 151,-170 104,-170"/>
<text text-anchor="start" x="109" y="-178" font-family="Linux libertine" font-size="10.00">output: </text>
<polygon fill="none" stroke="black" points="151,-170 151,-191 199,-191 199,-170 151,-170"/>
<text text-anchor="start" x="156" y="-178" font-family="Linux libertine" font-size="10.00">(1, 256) </text>
</g>
<!-- 17&#45;&gt;18 -->
<g id="edge18" class="edge">
<title>17&#45;&gt;18</title>
<path fill="none" stroke="black" d="M126,-247.63C126,-239.82 126,-230.73 126,-222.18"/>
<polygon fill="black" stroke="black" points="129.5,-222.16 126,-212.16 122.5,-222.16 129.5,-222.16"/>
</g>
<!-- 19 -->
<g id="node20" class="node">
<title>19</title>
<polygon fill="#c1ffc1" stroke="transparent" points="197,-134 55,-134 55,-92 197,-92 197,-134"/>
<polygon fill="none" stroke="black" points="55,-92 55,-134 102,-134 102,-92 55,-92"/>
<text text-anchor="start" x="63.5" y="-116" font-family="Linux libertine" font-size="10.00">Linear</text>
<text text-anchor="start" x="60" y="-105" font-family="Linux libertine" font-size="10.00">depth:3</text>
<polygon fill="none" stroke="black" points="102,-113 102,-134 149,-134 149,-113 102,-113"/>
<text text-anchor="start" x="111.5" y="-121" font-family="Linux libertine" font-size="10.00">input:</text>
<polygon fill="none" stroke="black" points="149,-113 149,-134 197,-134 197,-113 149,-113"/>
<text text-anchor="start" x="154" y="-121" font-family="Linux libertine" font-size="10.00">(1, 256) </text>
<polygon fill="none" stroke="black" points="102,-92 102,-113 149,-113 149,-92 102,-92"/>
<text text-anchor="start" x="107" y="-100" font-family="Linux libertine" font-size="10.00">output: </text>
<polygon fill="none" stroke="black" points="149,-92 149,-113 197,-113 197,-92 149,-92"/>
<text text-anchor="start" x="160" y="-100" font-family="Linux libertine" font-size="10.00">(1, 7) </text>
</g>
<!-- 18&#45;&gt;19 -->
<g id="edge19" class="edge">
<title>18&#45;&gt;19</title>
<path fill="none" stroke="black" d="M126,-169.63C126,-161.82 126,-152.73 126,-144.18"/>
<polygon fill="black" stroke="black" points="129.5,-144.16 126,-134.16 122.5,-144.16 129.5,-144.16"/>
</g>
<!-- 20 -->
<g id="node21" class="node">
<title>20</title>
<polygon fill="lightyellow" stroke="transparent" points="181,-56 71,-56 71,-24 181,-24 181,-56"/>
<polygon fill="none" stroke="black" points="71,-24 71,-56 147,-56 147,-24 71,-24"/>
<text text-anchor="start" x="76" y="-43" font-family="Linux libertine" font-size="10.00">output&#45;tensor</text>
<text text-anchor="start" x="90.5" y="-32" font-family="Linux libertine" font-size="10.00">depth:0</text>
<polygon fill="none" stroke="black" points="147,-24 147,-56 181,-56 181,-24 147,-24"/>
<text text-anchor="start" x="152" y="-37.5" font-family="Linux libertine" font-size="10.00">(1, 7)</text>
</g>
<!-- 19&#45;&gt;20 -->
<g id="edge20" class="edge">
<title>19&#45;&gt;20</title>
<path fill="none" stroke="black" d="M126,-91.84C126,-83.89 126,-74.66 126,-66.26"/>
<polygon fill="black" stroke="black" points="129.5,-66.24 126,-56.24 122.5,-66.24 129.5,-66.24"/>
</g>
</g>
</svg>
